<svg width="54" height="54" viewBox="0 0 54 54" fill="none" xmlns="http://www.w3.org/2000/svg">
<g clip-path="url(#clip0_1163_6391)">
<circle cx="27" cy="27" r="27" fill="#D9D9D9"/>
<circle cx="27" cy="27" r="27" fill="#FFDBC4"/>
<circle cx="27" cy="27" r="22" fill="#D9D9D9"/>
<circle cx="27" cy="27" r="22" fill="url(#paint0_linear_1163_6391)"/>
<path d="M21.9998 25.9998L25.9998 16.9998C26.7954 16.9998 27.5585 17.3159 28.1211 17.8785C28.6837 18.4411 28.9998 19.2042 28.9998 19.9998V23.9998H34.6598C34.9497 23.9965 35.2368 24.0563 35.5013 24.175C35.7658 24.2938 36.0014 24.4686 36.1916 24.6873C36.3819 24.9061 36.5223 25.1636 36.6031 25.4421C36.6839 25.7205 36.7033 26.0132 36.6598 26.2998L35.2798 35.2998C35.2074 35.7767 34.9652 36.2114 34.5977 36.5238C34.2301 36.8362 33.7621 37.0053 33.2798 36.9998H21.9998M21.9998 25.9998V36.9998M21.9998 25.9998H18.9998C18.4693 25.9998 17.9606 26.2105 17.5855 26.5856C17.2105 26.9607 16.9998 27.4694 16.9998 27.9998V34.9998C16.9998 35.5303 17.2105 36.039 17.5855 36.414C17.9606 36.7891 18.4693 36.9998 18.9998 36.9998H21.9998" stroke="#F9FAFB" stroke-width="2" stroke-linecap="round" stroke-linejoin="round"/>
</g>
<defs>
<linearGradient id="paint0_linear_1163_6391" x1="27" y1="5" x2="25.4072" y2="48.3771" gradientUnits="userSpaceOnUse">
<stop stop-color="#E80076"/>
<stop offset="1" stop-color="#F46331"/>
</linearGradient>
<clipPath id="clip0_1163_6391">
<rect width="54" height="54" rx="27" fill="white"/>
</clipPath>
</defs>
</svg>
