<svg width="182" height="19" viewBox="0 0 182 19" fill="none" xmlns="http://www.w3.org/2000/svg">
<path d="M10.0317 6.01651C9.96351 5.32901 9.6709 4.79492 9.15385 4.41424C8.63681 4.03356 7.9351 3.84322 7.04874 3.84322C6.44647 3.84322 5.93794 3.92844 5.52317 4.0989C5.1084 4.26367 4.79022 4.49379 4.56863 4.78924C4.35272 5.08469 4.24476 5.41992 4.24476 5.79492C4.2334 6.10742 4.29874 6.38015 4.44078 6.6131C4.58851 6.84606 4.79022 7.04776 5.0459 7.21822C5.30158 7.38299 5.59703 7.52788 5.93226 7.65288C6.26749 7.77219 6.62544 7.87447 7.00613 7.95969L8.57431 8.33469C9.33567 8.50515 10.0345 8.73242 10.6709 9.01651C11.3073 9.3006 11.8584 9.65004 12.3243 10.0648C12.7902 10.4796 13.151 10.9682 13.4067 11.5307C13.6681 12.0932 13.8016 12.7381 13.8073 13.4654C13.8016 14.5336 13.5289 15.4597 12.9891 16.2438C12.455 17.0222 11.6823 17.6273 10.6709 18.0591C9.66522 18.4853 8.45215 18.6983 7.03169 18.6983C5.6226 18.6983 4.39533 18.4824 3.34988 18.0506C2.3101 17.6188 1.4976 16.9796 0.912376 16.133C0.33283 15.2807 0.028853 14.2267 0.000443876 12.9711H3.57147C3.61124 13.5563 3.77885 14.0449 4.07431 14.437C4.37544 14.8233 4.77601 15.1159 5.27601 15.3148C5.78169 15.508 6.35272 15.6046 6.98908 15.6046C7.61408 15.6046 8.15669 15.5137 8.61692 15.3319C9.08283 15.15 9.44363 14.8972 9.69931 14.5733C9.95499 14.2495 10.0828 13.8773 10.0828 13.4569C10.0828 13.0648 9.96635 12.7353 9.7334 12.4682C9.50613 12.2012 9.1709 11.9739 8.72772 11.7864C8.29022 11.5989 7.75328 11.4284 7.11692 11.275L5.21635 10.7978C3.74476 10.4398 2.58283 9.88015 1.73056 9.11879C0.878285 8.35742 0.454989 7.33185 0.460671 6.04208C0.454989 4.98526 0.736239 4.06197 1.30442 3.27219C1.87828 2.48242 2.66522 1.86594 3.66522 1.42276C4.66522 0.97958 5.80158 0.757989 7.07431 0.757989C8.36976 0.757989 9.50044 0.97958 10.4664 1.42276C11.4379 1.86594 12.1936 2.48242 12.7334 3.27219C13.2732 4.06197 13.5516 4.97674 13.5686 6.01651H10.0317ZM19.9543 18.6983C19.1191 18.6983 18.3747 18.5534 17.7213 18.2637C17.0679 17.9682 16.5509 17.5336 16.1702 16.9597C15.7952 16.3801 15.6077 15.6586 15.6077 14.7949C15.6077 14.0676 15.7412 13.4569 16.0083 12.9625C16.2753 12.4682 16.6389 12.0705 17.0992 11.7694C17.5594 11.4682 18.0821 11.2409 18.6673 11.0875C19.2583 10.9341 19.8776 10.8262 20.5253 10.7637C21.2867 10.6841 21.9003 10.6103 22.3662 10.5421C22.8321 10.4682 23.1702 10.3603 23.3804 10.2182C23.5906 10.0762 23.6958 9.86594 23.6958 9.58754V9.5364C23.6958 8.99663 23.5253 8.57901 23.1844 8.28356C22.8492 7.9881 22.3719 7.84038 21.7526 7.84038C21.0992 7.84038 20.5793 7.98526 20.1929 8.27504C19.8066 8.55913 19.5509 8.91708 19.4259 9.3489L16.0679 9.07617C16.2384 8.28072 16.5736 7.59322 17.0736 7.01367C17.5736 6.42844 18.2185 5.97958 19.0083 5.66708C19.8037 5.3489 20.7242 5.18981 21.7696 5.18981C22.4969 5.18981 23.1929 5.27504 23.8577 5.44549C24.5281 5.61594 25.1219 5.88015 25.6389 6.2381C26.1617 6.59606 26.5736 7.05629 26.8747 7.61879C27.1759 8.1756 27.3264 8.84322 27.3264 9.62163V18.4512H23.8833V16.6358H23.781C23.5708 17.0449 23.2895 17.4057 22.9372 17.7182C22.585 18.025 22.1617 18.2665 21.6673 18.4426C21.173 18.6131 20.602 18.6983 19.9543 18.6983ZM20.9941 16.1926C21.5281 16.1926 21.9997 16.0875 22.4088 15.8773C22.8179 15.6614 23.1389 15.3716 23.3719 15.008C23.6048 14.6444 23.7213 14.2324 23.7213 13.7722V12.383C23.6077 12.4569 23.4514 12.525 23.2526 12.5875C23.0594 12.6444 22.8406 12.6983 22.5963 12.7495C22.352 12.7949 22.1077 12.8375 21.8634 12.8773C21.6191 12.9114 21.3975 12.9426 21.1986 12.9711C20.7725 13.0336 20.4003 13.133 20.0821 13.2694C19.7639 13.4057 19.5168 13.5904 19.3406 13.8233C19.1645 14.0506 19.0764 14.3347 19.0764 14.6756C19.0764 15.1699 19.2554 15.5478 19.6134 15.8091C19.977 16.0648 20.4372 16.1926 20.9941 16.1926ZM41.879 5.36026L37.3023 18.4512H33.2114L28.6347 5.36026H32.4699L35.1887 14.7267H35.325L38.0352 5.36026H41.879ZM49.281 18.7069C47.9344 18.7069 46.7753 18.4341 45.8037 17.8887C44.8378 17.3375 44.0935 16.5591 43.5708 15.5534C43.048 14.5421 42.7867 13.3461 42.7867 11.9654C42.7867 10.6188 43.048 9.43697 43.5708 8.41992C44.0935 7.40288 44.8293 6.61026 45.7781 6.04208C46.7327 5.4739 47.852 5.18981 49.1361 5.18981C49.9997 5.18981 50.8037 5.32901 51.548 5.60742C52.298 5.88015 52.9514 6.29208 53.5083 6.84322C54.0708 7.39435 54.5083 8.08754 54.8208 8.92276C55.1333 9.75231 55.2895 10.7239 55.2895 11.8375V12.8347H44.2355V10.5847H51.8719C51.8719 10.062 51.7583 9.5989 51.531 9.19549C51.3037 8.79208 50.9884 8.47674 50.585 8.24947C50.1872 8.01651 49.7242 7.90004 49.1958 7.90004C48.6446 7.90004 48.156 8.02788 47.7298 8.28356C47.3094 8.53356 46.9798 8.87163 46.7412 9.29776C46.5026 9.71822 46.3804 10.187 46.3747 10.704V12.8432C46.3747 13.4909 46.4941 14.0506 46.7327 14.5222C46.977 14.9938 47.3208 15.3574 47.7639 15.6131C48.2071 15.8688 48.7327 15.9966 49.3406 15.9966C49.7441 15.9966 50.1134 15.9398 50.4486 15.8262C50.7838 15.7125 51.0708 15.5421 51.3094 15.3148C51.548 15.0875 51.7298 14.8091 51.8548 14.4796L55.2128 14.7012C55.0423 15.508 54.6929 16.2125 54.1645 16.8148C53.6418 17.4114 52.9656 17.8773 52.1361 18.2125C51.3122 18.5421 50.3605 18.7069 49.281 18.7069ZM61.4173 0.996626V18.4512H57.727V0.996626H61.4173ZM68.0161 10.883V18.4512H64.3854V5.36026H67.8456V7.66992H67.999C68.2888 6.90856 68.7746 6.30628 69.4564 5.8631C70.1382 5.41424 70.9649 5.18981 71.9365 5.18981C72.8456 5.18981 73.6382 5.38867 74.3144 5.7864C74.9905 6.18413 75.5161 6.75231 75.8911 7.49094C76.2661 8.2239 76.4536 9.0989 76.4536 10.1159V18.4512H72.8229V10.7637C72.8286 9.96254 72.624 9.33754 72.2093 8.88867C71.7945 8.43413 71.2235 8.20685 70.4962 8.20685C70.0075 8.20685 69.5757 8.31197 69.2007 8.52219C68.8314 8.73242 68.5416 9.03924 68.3314 9.44265C68.1269 9.84038 68.0218 10.3205 68.0161 10.883ZM90.2071 9.09322L86.8833 9.29776C86.8264 9.01367 86.7043 8.75799 86.5168 8.53072C86.3293 8.29776 86.0821 8.1131 85.7753 7.97674C85.4742 7.83469 85.1134 7.76367 84.6929 7.76367C84.1304 7.76367 83.656 7.88299 83.2696 8.12163C82.8833 8.35458 82.6901 8.66708 82.6901 9.05913C82.6901 9.37163 82.8151 9.63583 83.0651 9.85174C83.3151 10.0676 83.7441 10.2409 84.352 10.3716L86.7213 10.8489C87.9941 11.1103 88.9429 11.5307 89.5679 12.1103C90.1929 12.6898 90.5054 13.4512 90.5054 14.3944C90.5054 15.2523 90.2526 16.0051 89.7469 16.6529C89.2469 17.3006 88.5594 17.8063 87.6844 18.1699C86.8151 18.5279 85.8122 18.7069 84.6759 18.7069C82.9429 18.7069 81.5622 18.3461 80.5338 17.6245C79.5111 16.8972 78.9117 15.9086 78.7355 14.6586L82.3066 14.4711C82.4145 14.9995 82.6759 15.4029 83.0906 15.6813C83.5054 15.954 84.0367 16.0904 84.6844 16.0904C85.3208 16.0904 85.8321 15.9682 86.2185 15.7239C86.6105 15.4739 86.8094 15.1529 86.8151 14.7608C86.8094 14.4313 86.6702 14.1614 86.3975 13.9512C86.1247 13.7353 85.7043 13.5705 85.1361 13.4569L82.8691 13.0051C81.5906 12.7495 80.6389 12.3063 80.0139 11.6756C79.3946 11.0449 79.085 10.2409 79.085 9.26367C79.085 8.42276 79.3122 7.69833 79.7668 7.09038C80.227 6.48242 80.8719 6.01367 81.7014 5.68413C82.5367 5.35458 83.5139 5.18981 84.6333 5.18981C86.2867 5.18981 87.5878 5.53924 88.5367 6.2381C89.4912 6.93697 90.048 7.88867 90.2071 9.09322ZM99.7547 5.36026V8.08754H91.8712V5.36026H99.7547ZM93.661 2.2239H97.2916V14.4284C97.2916 14.7637 97.3428 15.025 97.445 15.2125C97.5473 15.3944 97.6894 15.5222 97.8712 15.5961C98.0587 15.6699 98.2746 15.7069 98.5189 15.7069C98.6894 15.7069 98.8598 15.6926 99.0303 15.6642C99.2007 15.6301 99.3314 15.6046 99.4223 15.5875L99.9933 18.2892C99.8115 18.3461 99.5558 18.4114 99.2263 18.4853C98.8968 18.5648 98.4962 18.6131 98.0246 18.6301C97.1496 18.6642 96.3825 18.5478 95.7235 18.2807C95.07 18.0137 94.5615 17.5989 94.1979 17.0364C93.8343 16.4739 93.6553 15.7637 93.661 14.9057V2.2239ZM105.853 18.6983C105.017 18.6983 104.273 18.5534 103.62 18.2637C102.966 17.9682 102.449 17.5336 102.069 16.9597C101.694 16.3801 101.506 15.6586 101.506 14.7949C101.506 14.0676 101.64 13.4569 101.907 12.9625C102.174 12.4682 102.537 12.0705 102.998 11.7694C103.458 11.4682 103.981 11.2409 104.566 11.0875C105.157 10.9341 105.776 10.8262 106.424 10.7637C107.185 10.6841 107.799 10.6103 108.265 10.5421C108.731 10.4682 109.069 10.3603 109.279 10.2182C109.489 10.0762 109.594 9.86594 109.594 9.58754V9.5364C109.594 8.99663 109.424 8.57901 109.083 8.28356C108.748 7.9881 108.27 7.84038 107.651 7.84038C106.998 7.84038 106.478 7.98526 106.091 8.27504C105.705 8.55913 105.449 8.91708 105.324 9.3489L101.966 9.07617C102.137 8.28072 102.472 7.59322 102.972 7.01367C103.472 6.42844 104.117 5.97958 104.907 5.66708C105.702 5.3489 106.623 5.18981 107.668 5.18981C108.395 5.18981 109.091 5.27504 109.756 5.44549C110.427 5.61594 111.02 5.88015 111.537 6.2381C112.06 6.59606 112.472 7.05629 112.773 7.61879C113.074 8.1756 113.225 8.84322 113.225 9.62163V18.4512H109.782V16.6358H109.679C109.469 17.0449 109.188 17.4057 108.836 17.7182C108.483 18.025 108.06 18.2665 107.566 18.4426C107.071 18.6131 106.5 18.6983 105.853 18.6983ZM106.892 16.1926C107.427 16.1926 107.898 16.0875 108.307 15.8773C108.716 15.6614 109.037 15.3716 109.27 15.008C109.503 14.6444 109.62 14.2324 109.62 13.7722V12.383C109.506 12.4569 109.35 12.525 109.151 12.5875C108.958 12.6444 108.739 12.6983 108.495 12.7495C108.25 12.7949 108.006 12.8375 107.762 12.8773C107.517 12.9114 107.296 12.9426 107.097 12.9711C106.671 13.0336 106.299 13.133 105.981 13.2694C105.662 13.4057 105.415 13.5904 105.239 13.8233C105.063 14.0506 104.975 14.3347 104.975 14.6756C104.975 15.1699 105.154 15.5478 105.512 15.8091C105.875 16.0648 106.336 16.1926 106.892 16.1926ZM118.044 0.996626L122.263 14.258H122.425L126.652 0.996626H130.743L124.726 18.4512H119.971L113.945 0.996626H118.044ZM132.776 18.4512V5.36026H136.407V18.4512H132.776ZM134.6 3.67276C134.06 3.67276 133.597 3.49378 133.211 3.13583C132.83 2.77219 132.64 2.33753 132.64 1.83185C132.64 1.33185 132.83 0.902876 133.211 0.544922C133.597 0.181285 134.06 -0.000533581 134.6 -0.000533581C135.14 -0.000533581 135.6 0.181285 135.981 0.544922C136.367 0.902876 136.56 1.33185 136.56 1.83185C136.56 2.33753 136.367 2.77219 135.981 3.13583C135.6 3.49378 135.14 3.67276 134.6 3.67276ZM144.139 18.6642C143.145 18.6642 142.244 18.4086 141.437 17.8972C140.636 17.3801 140 16.6216 139.528 15.6216C139.062 14.6159 138.829 13.383 138.829 11.9228C138.829 10.4228 139.071 9.1756 139.554 8.18129C140.037 7.18129 140.679 6.43413 141.48 5.93981C142.287 5.43981 143.17 5.18981 144.13 5.18981C144.863 5.18981 145.474 5.31481 145.963 5.56481C146.457 5.80913 146.855 6.11594 147.156 6.48526C147.463 6.8489 147.696 7.20685 147.855 7.55913H147.966V0.996626H151.588V18.4512H148.008V16.3546H147.855C147.684 16.7182 147.443 17.079 147.13 17.437C146.824 17.7892 146.423 18.0819 145.929 18.3148C145.44 18.5478 144.843 18.6642 144.139 18.6642ZM145.29 15.775C145.875 15.775 146.369 15.6159 146.772 15.2978C147.182 14.9739 147.494 14.5222 147.71 13.9426C147.932 13.3631 148.042 12.6841 148.042 11.9057C148.042 11.1273 147.934 10.4512 147.718 9.87731C147.503 9.30344 147.19 8.86026 146.781 8.54776C146.372 8.23526 145.875 8.07901 145.29 8.07901C144.693 8.07901 144.19 8.24094 143.781 8.56481C143.372 8.88867 143.062 9.33754 142.852 9.9114C142.642 10.4853 142.537 11.15 142.537 11.9057C142.537 12.6671 142.642 13.3404 142.852 13.9256C143.068 14.5051 143.378 14.9597 143.781 15.2892C144.19 15.6131 144.693 15.775 145.29 15.775ZM160.539 18.7069C159.192 18.7069 158.033 18.4341 157.062 17.8887C156.096 17.3375 155.351 16.5591 154.829 15.5534C154.306 14.5421 154.044 13.3461 154.044 11.9654C154.044 10.6188 154.306 9.43697 154.829 8.41992C155.351 7.40288 156.087 6.61026 157.036 6.04208C157.991 5.4739 159.11 5.18981 160.394 5.18981C161.258 5.18981 162.062 5.32901 162.806 5.60742C163.556 5.88015 164.209 6.29208 164.766 6.84322C165.329 7.39435 165.766 8.08754 166.079 8.92276C166.391 9.75231 166.547 10.7239 166.547 11.8375V12.8347H155.493V10.5847H163.13C163.13 10.062 163.016 9.5989 162.789 9.19549C162.562 8.79208 162.246 8.47674 161.843 8.24947C161.445 8.01651 160.982 7.90004 160.454 7.90004C159.902 7.90004 159.414 8.02788 158.988 8.28356C158.567 8.53356 158.238 8.87163 157.999 9.29776C157.76 9.71822 157.638 10.187 157.633 10.704V12.8432C157.633 13.4909 157.752 14.0506 157.991 14.5222C158.235 14.9938 158.579 15.3574 159.022 15.6131C159.465 15.8688 159.991 15.9966 160.598 15.9966C161.002 15.9966 161.371 15.9398 161.706 15.8262C162.042 15.7125 162.329 15.5421 162.567 15.3148C162.806 15.0875 162.988 14.8091 163.113 14.4796L166.471 14.7012C166.3 15.508 165.951 16.2125 165.422 16.8148C164.9 17.4114 164.223 17.8773 163.394 18.2125C162.57 18.5421 161.618 18.7069 160.539 18.7069ZM174.831 18.7069C173.508 18.7069 172.363 18.4256 171.397 17.8631C170.437 17.2949 169.695 16.5051 169.172 15.4938C168.65 14.4767 168.388 13.2978 168.388 11.9569C168.388 10.6046 168.65 9.42276 169.172 8.4114C169.695 7.39435 170.437 6.60458 171.397 6.04208C172.363 5.4739 173.508 5.18981 174.831 5.18981C176.155 5.18981 177.297 5.4739 178.258 6.04208C179.223 6.60458 179.968 7.39435 180.491 8.4114C181.013 9.42276 181.275 10.6046 181.275 11.9569C181.275 13.2978 181.013 14.4767 180.491 15.4938C179.968 16.5051 179.223 17.2949 178.258 17.8631C177.297 18.4256 176.155 18.7069 174.831 18.7069ZM174.848 15.8944C175.451 15.8944 175.954 15.7239 176.357 15.383C176.76 15.0364 177.064 14.5648 177.269 13.9682C177.479 13.3716 177.584 12.6926 177.584 11.9313C177.584 11.1699 177.479 10.4909 177.269 9.89435C177.064 9.29776 176.76 8.82617 176.357 8.47958C175.954 8.13299 175.451 7.95969 174.848 7.95969C174.241 7.95969 173.729 8.13299 173.314 8.47958C172.905 8.82617 172.596 9.29776 172.385 9.89435C172.181 10.4909 172.079 11.1699 172.079 11.9313C172.079 12.6926 172.181 13.3716 172.385 13.9682C172.596 14.5648 172.905 15.0364 173.314 15.383C173.729 15.7239 174.241 15.8944 174.848 15.8944Z" fill="url(#paint0_linear_2303_3)"/>
<defs>
<linearGradient id="paint0_linear_2303_3" x1="-0.954102" y1="9.95117" x2="183.046" y2="9.95117" gradientUnits="userSpaceOnUse">
<stop stop-color="#6A4BFF"/>
<stop offset="0.5" stop-color="#B232E9"/>
<stop offset="1" stop-color="#FF1667"/>
</linearGradient>
</defs>
</svg>
